<?xml version="1.0" encoding="UTF-8"?><svg id="Capa_1" xmlns="http://www.w3.org/2000/svg" viewBox="0 0 762.52 195.39"><defs><style>.cls-1{fill:#fff;}.cls-2{fill:#49923b;}</style></defs><g><path class="cls-2" d="M88.27,.03L.03,0,0,88.01c-.02,48.6,39.34,88.01,87.89,88.02,48.57,.02,87.95-39.36,87.96-87.96C175.87,39.57,136.69,.21,88.27,.03Zm-.38,151.8c-35.2-.01-63.74-28.58-63.72-63.81l.02-63.79,63.97,.02c35.1,.13,63.51,28.66,63.5,63.81-.01,35.24-28.56,63.78-63.77,63.77Z"/><path class="cls-2" d="M56.36,53.71l-1.33,31.43c-.73,17.36,12.72,32.01,30.07,32.75,17.34,.73,31.99-12.75,32.73-30.1,.73-17.31-12.68-31.95-29.96-32.75l-31.51-1.33Zm52.82,33.72c-.54,12.57-11.15,22.35-23.72,21.81-12.57-.52-22.34-11.16-21.8-23.74l.97-22.78,22.84,.96c12.54,.57,22.25,11.19,21.72,23.74Z"/><path class="cls-2" d="M87.47,63.68c12.54,.57,22.25,11.19,21.72,23.74-.54,12.57-11.15,22.35-23.72,21.81-12.57-.52-22.34-11.16-21.8-23.74l.97-22.78,22.84,.96Z"/></g><g><path class="cls-1" d="M199.91,18h69.01c29.63,0,45.14,11.53,45.14,35.8,0,17.5-10.34,26.25-22.07,30.23v.4c14.92,2.58,27.64,12.53,27.64,33.81,0,30.23-19.29,41.96-48.72,41.96h-71V18Zm59.66,57.47c9.94,0,17.9-2.39,17.9-14.12s-7.96-14.12-17.9-14.12h-23.86v28.24h23.86Zm.99,55.48c14.92,0,22.47-3.58,22.47-16.9s-7.56-16.7-22.47-16.7h-24.86v33.61h24.86Z"/><path class="cls-1" d="M333.16,193.41v-24.26c3.38,.4,5.97,.6,9.55,.6,6.17,0,15.11-.2,17.9-10.94l-40.57-100.43h32.81l23.86,67.02h.4l21.88-67.02h31.42l-37.19,102.02c-8.55,23.27-18.49,35-40.97,35-6.96,0-12.33-.6-19.09-1.99Z"/><path class="cls-1" d="M487.88,81.05c-9.94,0-16.51,6.17-16.51,20.28v58.87h-31.82V58.37h31.82v14.72h.4c5.37-9.35,16.51-17.9,31.82-17.9,13.32,0,22.67,7.36,26.65,17.9h.4c8.75-10.14,17.7-17.9,34.21-17.9,20.48,0,32.61,12.93,32.61,36.19v68.81h-32.22v-58.67c0-15.31-3.18-20.48-14.52-20.48-10.14,0-16.51,6.17-16.51,20.28v58.87h-31.82v-58.67c0-15.31-3.18-20.48-14.52-20.48Z"/><path class="cls-1" d="M614.36,18h31.82v28.24h-31.82V18Zm0,40.37h31.82v101.82h-31.82V58.37Z"/><path class="cls-1" d="M659.5,133.55c0-21.08,17.3-29.23,38.98-33.81,11.14-2.39,26.85-3.98,26.85-14.12,0-5.57-4.38-9.15-13.52-9.15-11.73,0-17.1,4.77-18.1,14.72h-30.23c.99-19.49,15.31-36.19,49.72-36.19,27.64,0,42.96,11.14,42.96,42.36v39.38c0,5.37,.6,7.76,3.78,7.76,.8,0,1.39,0,2.59-.2v15.11c-6.36,1.19-12.93,1.79-17.5,1.79-12.73,0-17.5-4.77-19.09-13.32h-.4c-7.16,8.95-18.89,15.51-33.61,15.51-19.89,0-32.42-11.73-32.42-29.83Zm45.74,7.96c12.73,0,20.09-10.74,20.09-22.47v-8.55c-4.18,1.59-8.95,2.78-17.3,4.77-11.73,2.78-15.91,7.76-15.91,14.92,0,7.76,4.97,11.34,13.12,11.34Z"/></g></svg>