<svg id="Capa_1" data-name="Capa 1" xmlns="http://www.w3.org/2000/svg" xmlns:xlink="http://www.w3.org/1999/xlink" viewBox="0 0 44.89 20"><defs><style>.cls-1,.cls-34{fill:none;}.cls-10,.cls-11,.cls-12,.cls-13,.cls-14,.cls-15,.cls-16,.cls-17,.cls-18,.cls-19,.cls-2,.cls-20,.cls-21,.cls-22,.cls-23,.cls-24,.cls-25,.cls-26,.cls-27,.cls-28,.cls-29,.cls-3,.cls-30,.cls-31,.cls-32,.cls-33,.cls-4,.cls-5,.cls-6,.cls-7,.cls-8,.cls-9{fill:#c21718;}.cls-2,.cls-38{opacity:0;}.cls-3,.cls-39{opacity:0.03;}.cls-4,.cls-40{opacity:0.06;}.cls-41,.cls-5{opacity:0.1;}.cls-42,.cls-6{opacity:0.13;}.cls-43,.cls-7{opacity:0.16;}.cls-44,.cls-8{opacity:0.19;}.cls-45,.cls-9{opacity:0.23;}.cls-10,.cls-46{opacity:0.26;}.cls-11,.cls-47{opacity:0.29;}.cls-12,.cls-48{opacity:0.32;}.cls-13,.cls-49{opacity:0.35;}.cls-14,.cls-50{opacity:0.39;}.cls-15,.cls-51{opacity:0.42;}.cls-16,.cls-52{opacity:0.45;}.cls-17,.cls-53{opacity:0.48;}.cls-18,.cls-54{opacity:0.52;}.cls-19,.cls-55{opacity:0.55;}.cls-20,.cls-56{opacity:0.58;}.cls-21,.cls-57{opacity:0.61;}.cls-22,.cls-58{opacity:0.65;}.cls-23,.cls-59{opacity:0.68;}.cls-24,.cls-60{opacity:0.71;}.cls-25,.cls-61{opacity:0.74;}.cls-26,.cls-62{opacity:0.77;}.cls-27,.cls-63{opacity:0.81;}.cls-28,.cls-64{opacity:0.84;}.cls-29,.cls-65{opacity:0.87;}.cls-30,.cls-66{opacity:0.9;}.cls-31,.cls-67{opacity:0.94;}.cls-32,.cls-68{opacity:0.97;}.cls-34{stroke:#fff;stroke-miterlimit:10;stroke-width:0.19px;}.cls-35,.cls-38,.cls-39,.cls-40,.cls-41,.cls-42,.cls-43,.cls-44,.cls-45,.cls-46,.cls-47,.cls-48,.cls-49,.cls-50,.cls-51,.cls-52,.cls-53,.cls-54,.cls-55,.cls-56,.cls-57,.cls-58,.cls-59,.cls-60,.cls-61,.cls-62,.cls-63,.cls-64,.cls-65,.cls-66,.cls-67,.cls-68{fill:#fff;}.cls-36{opacity:0.54;}.cls-37{clip-path:url(#clip-path);}.cls-69{clip-path:url(#clip-path-2);}.cls-70{fill:#1d3b6e;}</style><clipPath id="clip-path"><path class="cls-1" d="M7.2,14.21l2.72,3-.55.18s-.07,0-.09-.07L7.66,15.43l-.1-.11c0,.28,0,.55-.08.81L7.3,17.91a.13.13,0,0,1-.11.15l-.37.11c-.08,0-.09,0-.08-.07.06-.53.12-1.07.19-1.6.08-.72.16-1.43.25-2.14A1.25,1.25,0,0,1,7.2,14.21Z"/></clipPath><clipPath id="clip-path-2"><path class="cls-1" d="M6.26,10.86l3.43,3.77L9,14.84c-.06,0-.08-.05-.12-.08-.68-.79-1.35-1.58-2-2.36l-.13-.15c0,.36-.07.7-.11,1-.07.75-.15,1.5-.22,2.25,0,.1,0,.16-.14.18s-.32.1-.47.15-.12,0-.11-.08c.09-.68.17-1.36.25-2,.1-.91.21-1.81.31-2.71C6.24,11,6.25,10.94,6.26,10.86Z"/></clipPath></defs><path class="cls-2" d="M8.92,3.18,4.71,4.55,3.57,8.36,7.08,18.53l8.63-2.81L12.2,5.56ZM7.48,5.79a.69.69,0,0,1-.87-.41.66.66,0,0,1,.44-.83A.69.69,0,0,1,7.92,5,.66.66,0,0,1,7.48,5.79Z"/><path class="cls-3" d="M8.92,3.18,4.71,4.55,3.57,8.36,7.08,18.53l8.63-2.81L12.2,5.56ZM7.48,5.79a.69.69,0,0,1-.87-.41.66.66,0,0,1,.44-.83A.69.69,0,0,1,7.92,5,.66.66,0,0,1,7.48,5.79Z"/><path class="cls-4" d="M8.92,3.18,4.71,4.55,3.57,8.36,7.08,18.53l8.63-2.81L12.2,5.56ZM7.48,5.79a.69.69,0,0,1-.87-.41.66.66,0,0,1,.44-.83A.69.69,0,0,1,7.92,5,.66.66,0,0,1,7.48,5.79Z"/><path class="cls-5" d="M8.92,3.18,4.71,4.55,3.57,8.36,7.08,18.53l8.63-2.81L12.2,5.56ZM7.48,5.79a.69.69,0,0,1-.87-.41.66.66,0,0,1,.44-.83A.69.69,0,0,1,7.92,5,.66.66,0,0,1,7.48,5.79Z"/><path class="cls-6" d="M8.92,3.18,4.71,4.55,3.57,8.36,7.08,18.53l8.63-2.81L12.2,5.56ZM7.48,5.79a.69.69,0,0,1-.87-.41.66.66,0,0,1,.44-.83A.69.69,0,0,1,7.92,5,.66.66,0,0,1,7.48,5.79Z"/><path class="cls-7" d="M8.92,3.18,4.71,4.55,3.57,8.36,7.08,18.53l8.63-2.81L12.2,5.56ZM7.48,5.79a.69.69,0,0,1-.87-.41.66.66,0,0,1,.44-.83A.69.69,0,0,1,7.92,5,.66.66,0,0,1,7.48,5.79Z"/><path class="cls-8" d="M8.92,3.18,4.71,4.55,3.57,8.36,7.08,18.53l8.63-2.81L12.2,5.56ZM7.48,5.79a.69.69,0,0,1-.87-.41.66.66,0,0,1,.44-.83A.69.69,0,0,1,7.92,5,.66.66,0,0,1,7.48,5.79Z"/><path class="cls-9" d="M8.92,3.18,4.71,4.55,3.57,8.36,7.08,18.53l8.63-2.81L12.2,5.56ZM7.48,5.79a.69.69,0,0,1-.87-.41.66.66,0,0,1,.44-.83A.69.69,0,0,1,7.92,5,.66.66,0,0,1,7.48,5.79Z"/><path class="cls-10" d="M8.92,3.18,4.71,4.55,3.57,8.36,7.08,18.53l8.63-2.81L12.2,5.56ZM7.48,5.79a.69.69,0,0,1-.87-.41.66.66,0,0,1,.44-.83A.69.69,0,0,1,7.92,5,.66.66,0,0,1,7.48,5.79Z"/><path class="cls-11" d="M8.92,3.18,4.71,4.55,3.57,8.36,7.08,18.53l8.63-2.81L12.2,5.56ZM7.48,5.79a.69.69,0,0,1-.87-.41.66.66,0,0,1,.44-.83A.69.69,0,0,1,7.92,5,.66.66,0,0,1,7.48,5.79Z"/><path class="cls-12" d="M8.92,3.18,4.71,4.55,3.57,8.36,7.08,18.53l8.63-2.81L12.2,5.56ZM7.48,5.79a.69.69,0,0,1-.87-.41.66.66,0,0,1,.44-.83A.69.69,0,0,1,7.92,5,.66.66,0,0,1,7.48,5.79Z"/><path class="cls-13" d="M8.92,3.18,4.71,4.55,3.57,8.36,7.08,18.53l8.63-2.81L12.2,5.56ZM7.48,5.79a.69.69,0,0,1-.87-.41.66.66,0,0,1,.44-.83A.69.69,0,0,1,7.92,5,.66.66,0,0,1,7.48,5.79Z"/><path class="cls-14" d="M8.92,3.18,4.71,4.55,3.57,8.36,7.08,18.53l8.63-2.81L12.2,5.56ZM7.48,5.79a.69.69,0,0,1-.87-.41.66.66,0,0,1,.44-.83A.69.69,0,0,1,7.92,5,.66.66,0,0,1,7.48,5.79Z"/><path class="cls-15" d="M8.92,3.18,4.71,4.55,3.57,8.36,7.08,18.53l8.63-2.81L12.2,5.56ZM7.48,5.79a.69.69,0,0,1-.87-.41.66.66,0,0,1,.44-.83A.69.69,0,0,1,7.92,5,.66.66,0,0,1,7.48,5.79Z"/><path class="cls-16" d="M8.92,3.18,4.71,4.55,3.57,8.36,7.08,18.53l8.63-2.81L12.2,5.56ZM7.48,5.79a.69.69,0,0,1-.87-.41.66.66,0,0,1,.44-.83A.69.69,0,0,1,7.92,5,.66.66,0,0,1,7.48,5.79Z"/><path class="cls-17" d="M8.92,3.18,4.71,4.55,3.57,8.36,7.08,18.53l8.63-2.81L12.2,5.56ZM7.48,5.79a.69.69,0,0,1-.87-.41.66.66,0,0,1,.44-.83A.69.69,0,0,1,7.92,5,.66.66,0,0,1,7.48,5.79Z"/><path class="cls-18" d="M8.92,3.18,4.71,4.55,3.57,8.36,7.08,18.53l8.63-2.81L12.2,5.56ZM7.48,5.79a.69.69,0,0,1-.87-.41.66.66,0,0,1,.44-.83A.69.69,0,0,1,7.92,5,.66.66,0,0,1,7.48,5.79Z"/><path class="cls-19" d="M8.92,3.18,4.71,4.55,3.57,8.36,7.08,18.53l8.63-2.81L12.2,5.56ZM7.48,5.79a.69.69,0,0,1-.87-.41.66.66,0,0,1,.44-.83A.69.69,0,0,1,7.92,5,.66.66,0,0,1,7.48,5.79Z"/><path class="cls-20" d="M8.92,3.18,4.71,4.55,3.57,8.36,7.08,18.53l8.63-2.81L12.2,5.56ZM7.48,5.79a.69.69,0,0,1-.87-.41.66.66,0,0,1,.44-.83A.69.69,0,0,1,7.92,5,.66.66,0,0,1,7.48,5.79Z"/><path class="cls-21" d="M8.92,3.18,4.71,4.55,3.57,8.36,7.08,18.53l8.63-2.81L12.2,5.56ZM7.48,5.79a.69.69,0,0,1-.87-.41.66.66,0,0,1,.44-.83A.69.69,0,0,1,7.92,5,.66.66,0,0,1,7.48,5.79Z"/><path class="cls-22" d="M8.92,3.18,4.71,4.55,3.57,8.36,7.08,18.53l8.63-2.81L12.2,5.56ZM7.48,5.79a.69.69,0,0,1-.87-.41.66.66,0,0,1,.44-.83A.69.69,0,0,1,7.92,5,.66.66,0,0,1,7.48,5.79Z"/><path class="cls-23" d="M8.92,3.18,4.71,4.55,3.57,8.36,7.08,18.53l8.63-2.81L12.2,5.56ZM7.48,5.79a.69.69,0,0,1-.87-.41.66.66,0,0,1,.44-.83A.69.69,0,0,1,7.92,5,.66.66,0,0,1,7.48,5.79Z"/><path class="cls-24" d="M8.92,3.18,4.71,4.55,3.57,8.36,7.08,18.53l8.63-2.81L12.2,5.56ZM7.48,5.79a.69.69,0,0,1-.87-.41.66.66,0,0,1,.44-.83A.69.69,0,0,1,7.92,5,.66.66,0,0,1,7.48,5.79Z"/><path class="cls-25" d="M8.92,3.18,4.71,4.55,3.57,8.36,7.08,18.53l8.63-2.81L12.2,5.56ZM7.48,5.79a.69.69,0,0,1-.87-.41.66.66,0,0,1,.44-.83A.69.69,0,0,1,7.92,5,.66.66,0,0,1,7.48,5.79Z"/><path class="cls-26" d="M8.92,3.18,4.71,4.55,3.57,8.36,7.08,18.53l8.63-2.81L12.2,5.56ZM7.48,5.79a.69.69,0,0,1-.87-.41.66.66,0,0,1,.44-.83A.69.69,0,0,1,7.92,5,.66.66,0,0,1,7.48,5.79Z"/><path class="cls-27" d="M8.92,3.18,4.71,4.55,3.57,8.36,7.08,18.53l8.63-2.81L12.2,5.56ZM7.48,5.79a.69.69,0,0,1-.87-.41.66.66,0,0,1,.44-.83A.69.69,0,0,1,7.92,5,.66.66,0,0,1,7.48,5.79Z"/><path class="cls-28" d="M8.92,3.18,4.71,4.55,3.57,8.36,7.08,18.53l8.63-2.81L12.2,5.56ZM7.48,5.79a.69.69,0,0,1-.87-.41.66.66,0,0,1,.44-.83A.69.69,0,0,1,7.92,5,.66.66,0,0,1,7.48,5.79Z"/><path class="cls-29" d="M8.92,3.18,4.71,4.55,3.57,8.36,7.08,18.53l8.63-2.81L12.2,5.56ZM7.48,5.79a.69.69,0,0,1-.87-.41.66.66,0,0,1,.44-.83A.69.69,0,0,1,7.92,5,.66.66,0,0,1,7.48,5.79Z"/><path class="cls-30" d="M8.92,3.18,4.71,4.55,3.57,8.36,7.08,18.53l8.63-2.81L12.2,5.56ZM7.48,5.79a.69.69,0,0,1-.87-.41.66.66,0,0,1,.44-.83A.69.69,0,0,1,7.92,5,.66.66,0,0,1,7.48,5.79Z"/><path class="cls-31" d="M8.92,3.18,4.71,4.55,3.57,8.36,7.08,18.53l8.63-2.81L12.2,5.56ZM7.48,5.79a.69.69,0,0,1-.87-.41.66.66,0,0,1,.44-.83A.69.69,0,0,1,7.92,5,.66.66,0,0,1,7.48,5.79Z"/><path class="cls-32" d="M8.92,3.18,4.71,4.55,3.57,8.36,7.08,18.53l8.63-2.81L12.2,5.56ZM7.48,5.79a.69.69,0,0,1-.87-.41.66.66,0,0,1,.44-.83A.69.69,0,0,1,7.92,5,.66.66,0,0,1,7.48,5.79Z"/><path class="cls-33" d="M8.92,3.18,4.71,4.55,3.57,8.36,7.08,18.53l8.63-2.81L12.2,5.56ZM7.48,5.79a.69.69,0,0,1-.87-.41.66.66,0,0,1,.44-.83A.69.69,0,0,1,7.92,5,.66.66,0,0,1,7.48,5.79Z"/><polygon class="cls-34" points="4.05 8.29 5.06 4.96 8.87 3.71 11.59 5.68 14.98 15.5 7.41 17.95 4.05 8.29"/><path class="cls-35" d="M6.74,3.89,7,3.82C4.55-1.51,1.22.23.92,1.66,1.55.31,4.5-.72,6.74,3.89Z"/><path class="cls-35" d="M7.24,4.52l-.2,0A.53.53,0,0,1,7.19,5C6.69,5,5.24,4.44,1.25,2.47a.67.67,0,0,1-.33-.81c-.22.46-.18.91.23,1.11,4.09,2,5.5,2.5,5.95,2.52h0C7.71,5.34,7.24,4.52,7.24,4.52Z"/><g class="cls-36"><g class="cls-37"><path class="cls-38" d="M8.56,8.14,5.85,9l-.74,2.46L7.38,18,13,16.23,10.68,9.67ZM7.63,9.82a.45.45,0,0,1-.56-.26A.43.43,0,0,1,7.36,9a.45.45,0,0,1,.56.26A.42.42,0,0,1,7.63,9.82Z"/><path class="cls-39" d="M8.56,8.14,5.85,9l-.74,2.46L7.38,18,13,16.23,10.68,9.67ZM7.63,9.82a.45.45,0,0,1-.56-.26A.43.43,0,0,1,7.36,9a.45.45,0,0,1,.56.26A.42.42,0,0,1,7.63,9.82Z"/><path class="cls-40" d="M8.56,8.14,5.85,9l-.74,2.46L7.38,18,13,16.23,10.68,9.67ZM7.63,9.82a.45.45,0,0,1-.56-.26A.43.43,0,0,1,7.36,9a.45.45,0,0,1,.56.26A.42.42,0,0,1,7.63,9.82Z"/><path class="cls-41" d="M8.56,8.14,5.85,9l-.74,2.46L7.38,18,13,16.23,10.68,9.67ZM7.63,9.82a.45.45,0,0,1-.56-.26A.43.43,0,0,1,7.36,9a.45.45,0,0,1,.56.26A.42.42,0,0,1,7.63,9.82Z"/><path class="cls-42" d="M8.56,8.14,5.85,9l-.74,2.46L7.38,18,13,16.23,10.68,9.67ZM7.63,9.82a.45.45,0,0,1-.56-.26A.43.43,0,0,1,7.36,9a.45.45,0,0,1,.56.26A.42.42,0,0,1,7.63,9.82Z"/><path class="cls-43" d="M8.56,8.14,5.85,9l-.74,2.46L7.38,18,13,16.23,10.68,9.67ZM7.63,9.82a.45.45,0,0,1-.56-.26A.43.43,0,0,1,7.36,9a.45.45,0,0,1,.56.26A.42.42,0,0,1,7.63,9.82Z"/><path class="cls-44" d="M8.56,8.14,5.85,9l-.74,2.46L7.38,18,13,16.23,10.68,9.67ZM7.63,9.82a.45.45,0,0,1-.56-.26A.43.43,0,0,1,7.36,9a.45.45,0,0,1,.56.26A.42.42,0,0,1,7.63,9.82Z"/><path class="cls-45" d="M8.56,8.14,5.85,9l-.74,2.46L7.38,18,13,16.23,10.68,9.67ZM7.63,9.82a.45.45,0,0,1-.56-.26A.43.43,0,0,1,7.36,9a.45.45,0,0,1,.56.26A.42.42,0,0,1,7.63,9.82Z"/><path class="cls-46" d="M8.56,8.14,5.85,9l-.74,2.46L7.38,18,13,16.23,10.68,9.67ZM7.63,9.82a.45.45,0,0,1-.56-.26A.43.43,0,0,1,7.36,9a.45.45,0,0,1,.56.26A.42.42,0,0,1,7.63,9.82Z"/><path class="cls-47" d="M8.56,8.14,5.85,9l-.74,2.46L7.38,18,13,16.23,10.68,9.67ZM7.63,9.82a.45.45,0,0,1-.56-.26A.43.43,0,0,1,7.36,9a.45.45,0,0,1,.56.26A.42.42,0,0,1,7.63,9.82Z"/><path class="cls-48" d="M8.56,8.14,5.85,9l-.74,2.46L7.38,18,13,16.23,10.68,9.67ZM7.63,9.82a.45.45,0,0,1-.56-.26A.43.43,0,0,1,7.36,9a.45.45,0,0,1,.56.26A.42.42,0,0,1,7.63,9.82Z"/><path class="cls-49" d="M8.56,8.14,5.85,9l-.74,2.46L7.38,18,13,16.23,10.68,9.67ZM7.63,9.82a.45.45,0,0,1-.56-.26A.43.43,0,0,1,7.36,9a.45.45,0,0,1,.56.26A.42.42,0,0,1,7.63,9.82Z"/><path class="cls-50" d="M8.56,8.14,5.85,9l-.74,2.46L7.38,18,13,16.23,10.68,9.67ZM7.63,9.82a.45.45,0,0,1-.56-.26A.43.43,0,0,1,7.36,9a.45.45,0,0,1,.56.26A.42.42,0,0,1,7.63,9.82Z"/><path class="cls-51" d="M8.56,8.14,5.85,9l-.74,2.46L7.38,18,13,16.23,10.68,9.67ZM7.63,9.82a.45.45,0,0,1-.56-.26A.43.43,0,0,1,7.36,9a.45.45,0,0,1,.56.26A.42.42,0,0,1,7.63,9.82Z"/><path class="cls-52" d="M8.56,8.14,5.85,9l-.74,2.46L7.38,18,13,16.23,10.68,9.67ZM7.63,9.82a.45.45,0,0,1-.56-.26A.43.43,0,0,1,7.36,9a.45.45,0,0,1,.56.26A.42.42,0,0,1,7.63,9.82Z"/><path class="cls-53" d="M8.56,8.14,5.85,9l-.74,2.46L7.38,18,13,16.23,10.68,9.67ZM7.63,9.82a.45.45,0,0,1-.56-.26A.43.43,0,0,1,7.36,9a.45.45,0,0,1,.56.26A.42.42,0,0,1,7.63,9.82Z"/><path class="cls-54" d="M8.56,8.14,5.85,9l-.74,2.46L7.38,18,13,16.23,10.68,9.67ZM7.63,9.82a.45.45,0,0,1-.56-.26A.43.43,0,0,1,7.36,9a.45.45,0,0,1,.56.26A.42.42,0,0,1,7.63,9.82Z"/><path class="cls-55" d="M8.56,8.14,5.85,9l-.74,2.46L7.38,18,13,16.23,10.68,9.67ZM7.63,9.82a.45.45,0,0,1-.56-.26A.43.43,0,0,1,7.36,9a.45.45,0,0,1,.56.26A.42.42,0,0,1,7.63,9.82Z"/><path class="cls-56" d="M8.56,8.14,5.85,9l-.74,2.46L7.38,18,13,16.23,10.68,9.67ZM7.63,9.82a.45.45,0,0,1-.56-.26A.43.43,0,0,1,7.36,9a.45.45,0,0,1,.56.26A.42.42,0,0,1,7.63,9.82Z"/><path class="cls-57" d="M8.56,8.14,5.85,9l-.74,2.46L7.38,18,13,16.23,10.68,9.67ZM7.63,9.82a.45.45,0,0,1-.56-.26A.43.43,0,0,1,7.36,9a.45.45,0,0,1,.56.26A.42.42,0,0,1,7.63,9.82Z"/><path class="cls-58" d="M8.56,8.14,5.85,9l-.74,2.46L7.38,18,13,16.23,10.68,9.67ZM7.63,9.82a.45.45,0,0,1-.56-.26A.43.43,0,0,1,7.36,9a.45.45,0,0,1,.56.26A.42.42,0,0,1,7.63,9.82Z"/><path class="cls-59" d="M8.56,8.14,5.85,9l-.74,2.46L7.38,18,13,16.23,10.68,9.67ZM7.63,9.82a.45.45,0,0,1-.56-.26A.43.43,0,0,1,7.36,9a.45.45,0,0,1,.56.26A.42.42,0,0,1,7.63,9.82Z"/><path class="cls-60" d="M8.56,8.14,5.85,9l-.74,2.46L7.38,18,13,16.23,10.68,9.67ZM7.63,9.82a.45.45,0,0,1-.56-.26A.43.43,0,0,1,7.36,9a.45.45,0,0,1,.56.26A.42.42,0,0,1,7.63,9.82Z"/><path class="cls-61" d="M8.56,8.14,5.85,9l-.74,2.46L7.38,18,13,16.23,10.68,9.67ZM7.63,9.82a.45.45,0,0,1-.56-.26A.43.43,0,0,1,7.36,9a.45.45,0,0,1,.56.26A.42.42,0,0,1,7.63,9.82Z"/><path class="cls-62" d="M8.56,8.14,5.85,9l-.74,2.46L7.38,18,13,16.23,10.68,9.67ZM7.63,9.82a.45.45,0,0,1-.56-.26A.43.43,0,0,1,7.36,9a.45.45,0,0,1,.56.26A.42.42,0,0,1,7.63,9.82Z"/><path class="cls-63" d="M8.56,8.14,5.85,9l-.74,2.46L7.38,18,13,16.23,10.68,9.67ZM7.63,9.82a.45.45,0,0,1-.56-.26A.43.43,0,0,1,7.36,9a.45.45,0,0,1,.56.26A.42.42,0,0,1,7.63,9.82Z"/><path class="cls-64" d="M8.56,8.14,5.85,9l-.74,2.46L7.38,18,13,16.23,10.68,9.67ZM7.63,9.82a.45.45,0,0,1-.56-.26A.43.43,0,0,1,7.36,9a.45.45,0,0,1,.56.26A.42.42,0,0,1,7.63,9.82Z"/><path class="cls-65" d="M8.56,8.14,5.85,9l-.74,2.46L7.38,18,13,16.23,10.68,9.67ZM7.63,9.82a.45.45,0,0,1-.56-.26A.43.43,0,0,1,7.36,9a.45.45,0,0,1,.56.26A.42.42,0,0,1,7.63,9.82Z"/><path class="cls-66" d="M8.56,8.14,5.85,9l-.74,2.46L7.38,18,13,16.23,10.68,9.67ZM7.63,9.82a.45.45,0,0,1-.56-.26A.43.43,0,0,1,7.36,9a.45.45,0,0,1,.56.26A.42.42,0,0,1,7.63,9.82Z"/><path class="cls-67" d="M8.56,8.14,5.85,9l-.74,2.46L7.38,18,13,16.23,10.68,9.67ZM7.63,9.82a.45.45,0,0,1-.56-.26A.43.43,0,0,1,7.36,9a.45.45,0,0,1,.56.26A.42.42,0,0,1,7.63,9.82Z"/><path class="cls-68" d="M8.56,8.14,5.85,9l-.74,2.46L7.38,18,13,16.23,10.68,9.67ZM7.63,9.82a.45.45,0,0,1-.56-.26A.43.43,0,0,1,7.36,9a.45.45,0,0,1,.56.26A.42.42,0,0,1,7.63,9.82Z"/><path class="cls-35" d="M8.56,8.14,5.85,9l-.74,2.46L7.38,18,13,16.23,10.68,9.67ZM7.63,9.82a.45.45,0,0,1-.56-.26A.43.43,0,0,1,7.36,9a.45.45,0,0,1,.56.26A.42.42,0,0,1,7.63,9.82Z"/></g></g><g class="cls-36"><g class="cls-69"><path class="cls-38" d="M8.41,3.71,5,4.83,4.05,7.94l2.87,8.29,7-2.29L11.09,5.65ZM7.24,5.84a.57.57,0,0,1-.71-.33.54.54,0,0,1,.36-.68.56.56,0,0,1,.71.33A.54.54,0,0,1,7.24,5.84Z"/><path class="cls-39" d="M8.41,3.71,5,4.83,4.05,7.94l2.87,8.29,7-2.29L11.09,5.65ZM7.24,5.84a.57.57,0,0,1-.71-.33.54.54,0,0,1,.36-.68.56.56,0,0,1,.71.33A.54.54,0,0,1,7.24,5.84Z"/><path class="cls-40" d="M8.41,3.71,5,4.83,4.05,7.94l2.87,8.29,7-2.29L11.09,5.65ZM7.24,5.84a.57.57,0,0,1-.71-.33.54.54,0,0,1,.36-.68.56.56,0,0,1,.71.33A.54.54,0,0,1,7.24,5.84Z"/><path class="cls-41" d="M8.41,3.71,5,4.83,4.05,7.94l2.87,8.29,7-2.29L11.09,5.65ZM7.24,5.84a.57.57,0,0,1-.71-.33.54.54,0,0,1,.36-.68.56.56,0,0,1,.71.33A.54.54,0,0,1,7.24,5.84Z"/><path class="cls-42" d="M8.41,3.71,5,4.83,4.05,7.94l2.87,8.29,7-2.29L11.09,5.65ZM7.24,5.84a.57.57,0,0,1-.71-.33.54.54,0,0,1,.36-.68.56.56,0,0,1,.71.33A.54.54,0,0,1,7.24,5.84Z"/><path class="cls-43" d="M8.41,3.71,5,4.83,4.05,7.94l2.87,8.29,7-2.29L11.09,5.65ZM7.24,5.84a.57.57,0,0,1-.71-.33.54.54,0,0,1,.36-.68.56.56,0,0,1,.71.33A.54.54,0,0,1,7.24,5.84Z"/><path class="cls-44" d="M8.41,3.71,5,4.83,4.05,7.94l2.87,8.29,7-2.29L11.09,5.65ZM7.24,5.84a.57.57,0,0,1-.71-.33.54.54,0,0,1,.36-.68.56.56,0,0,1,.71.33A.54.54,0,0,1,7.24,5.84Z"/><path class="cls-45" d="M8.41,3.71,5,4.83,4.05,7.94l2.87,8.29,7-2.29L11.09,5.65ZM7.24,5.84a.57.57,0,0,1-.71-.33.54.54,0,0,1,.36-.68.56.56,0,0,1,.71.33A.54.54,0,0,1,7.24,5.84Z"/><path class="cls-46" d="M8.41,3.71,5,4.83,4.05,7.94l2.87,8.29,7-2.29L11.09,5.65ZM7.24,5.84a.57.57,0,0,1-.71-.33.54.54,0,0,1,.36-.68.56.56,0,0,1,.71.33A.54.54,0,0,1,7.24,5.84Z"/><path class="cls-47" d="M8.41,3.71,5,4.83,4.05,7.94l2.87,8.29,7-2.29L11.09,5.65ZM7.24,5.84a.57.57,0,0,1-.71-.33.54.54,0,0,1,.36-.68.56.56,0,0,1,.71.33A.54.54,0,0,1,7.24,5.84Z"/><path class="cls-48" d="M8.41,3.71,5,4.83,4.05,7.94l2.87,8.29,7-2.29L11.09,5.65ZM7.24,5.84a.57.57,0,0,1-.71-.33.54.54,0,0,1,.36-.68.56.56,0,0,1,.71.33A.54.54,0,0,1,7.24,5.84Z"/><path class="cls-49" d="M8.41,3.71,5,4.83,4.05,7.94l2.87,8.29,7-2.29L11.09,5.65ZM7.24,5.84a.57.57,0,0,1-.71-.33.54.54,0,0,1,.36-.68.56.56,0,0,1,.71.33A.54.54,0,0,1,7.24,5.84Z"/><path class="cls-50" d="M8.41,3.71,5,4.83,4.05,7.94l2.87,8.29,7-2.29L11.09,5.65ZM7.24,5.84a.57.57,0,0,1-.71-.33.54.54,0,0,1,.36-.68.56.56,0,0,1,.71.33A.54.54,0,0,1,7.24,5.84Z"/><path class="cls-51" d="M8.41,3.71,5,4.83,4.05,7.94l2.87,8.29,7-2.29L11.09,5.65ZM7.24,5.84a.57.57,0,0,1-.71-.33.54.54,0,0,1,.36-.68.56.56,0,0,1,.71.33A.54.54,0,0,1,7.24,5.84Z"/><path class="cls-52" d="M8.41,3.71,5,4.83,4.05,7.94l2.87,8.29,7-2.29L11.09,5.65ZM7.24,5.84a.57.57,0,0,1-.71-.33.54.54,0,0,1,.36-.68.56.56,0,0,1,.71.33A.54.54,0,0,1,7.24,5.84Z"/><path class="cls-53" d="M8.41,3.71,5,4.83,4.05,7.94l2.87,8.29,7-2.29L11.09,5.65ZM7.24,5.84a.57.57,0,0,1-.71-.33.54.54,0,0,1,.36-.68.56.56,0,0,1,.71.33A.54.54,0,0,1,7.24,5.84Z"/><path class="cls-54" d="M8.41,3.71,5,4.83,4.05,7.94l2.87,8.29,7-2.29L11.09,5.65ZM7.24,5.84a.57.57,0,0,1-.71-.33.54.54,0,0,1,.36-.68.56.56,0,0,1,.71.33A.54.54,0,0,1,7.24,5.84Z"/><path class="cls-55" d="M8.41,3.71,5,4.83,4.05,7.94l2.87,8.29,7-2.29L11.09,5.65ZM7.24,5.84a.57.57,0,0,1-.71-.33.54.54,0,0,1,.36-.68.56.56,0,0,1,.71.33A.54.54,0,0,1,7.24,5.84Z"/><path class="cls-56" d="M8.41,3.71,5,4.83,4.05,7.94l2.87,8.29,7-2.29L11.09,5.65ZM7.24,5.84a.57.57,0,0,1-.71-.33.54.54,0,0,1,.36-.68.56.56,0,0,1,.71.33A.54.54,0,0,1,7.24,5.84Z"/><path class="cls-57" d="M8.41,3.71,5,4.83,4.05,7.94l2.87,8.29,7-2.29L11.09,5.65ZM7.24,5.84a.57.57,0,0,1-.71-.33.54.54,0,0,1,.36-.68.56.56,0,0,1,.71.33A.54.54,0,0,1,7.24,5.84Z"/><path class="cls-58" d="M8.41,3.71,5,4.83,4.05,7.94l2.87,8.29,7-2.29L11.09,5.65ZM7.24,5.84a.57.57,0,0,1-.71-.33.54.54,0,0,1,.36-.68.56.56,0,0,1,.71.33A.54.54,0,0,1,7.24,5.84Z"/><path class="cls-59" d="M8.41,3.71,5,4.83,4.05,7.94l2.87,8.29,7-2.29L11.09,5.65ZM7.24,5.84a.57.57,0,0,1-.71-.33.54.54,0,0,1,.36-.68.56.56,0,0,1,.71.33A.54.54,0,0,1,7.24,5.84Z"/><path class="cls-60" d="M8.41,3.71,5,4.83,4.05,7.94l2.87,8.29,7-2.29L11.09,5.65ZM7.24,5.84a.57.57,0,0,1-.71-.33.54.54,0,0,1,.36-.68.56.56,0,0,1,.71.33A.54.54,0,0,1,7.24,5.84Z"/><path class="cls-61" d="M8.41,3.71,5,4.83,4.05,7.94l2.87,8.29,7-2.29L11.09,5.65ZM7.24,5.84a.57.57,0,0,1-.71-.33.54.54,0,0,1,.36-.68.56.56,0,0,1,.71.33A.54.54,0,0,1,7.24,5.84Z"/><path class="cls-62" d="M8.41,3.71,5,4.83,4.05,7.94l2.87,8.29,7-2.29L11.09,5.65ZM7.24,5.84a.57.57,0,0,1-.71-.33.54.54,0,0,1,.36-.68.56.56,0,0,1,.71.33A.54.54,0,0,1,7.24,5.84Z"/><path class="cls-63" d="M8.41,3.71,5,4.83,4.05,7.94l2.87,8.29,7-2.29L11.09,5.65ZM7.24,5.84a.57.57,0,0,1-.71-.33.54.54,0,0,1,.36-.68.56.56,0,0,1,.71.33A.54.54,0,0,1,7.24,5.84Z"/><path class="cls-64" d="M8.41,3.71,5,4.83,4.05,7.94l2.87,8.29,7-2.29L11.09,5.65ZM7.24,5.84a.57.57,0,0,1-.71-.33.54.54,0,0,1,.36-.68.56.56,0,0,1,.71.33A.54.54,0,0,1,7.24,5.84Z"/><path class="cls-65" d="M8.41,3.71,5,4.83,4.05,7.94l2.87,8.29,7-2.29L11.09,5.65ZM7.24,5.84a.57.57,0,0,1-.71-.33.54.54,0,0,1,.36-.68.56.56,0,0,1,.71.33A.54.54,0,0,1,7.24,5.84Z"/><path class="cls-66" d="M8.41,3.71,5,4.83,4.05,7.94l2.87,8.29,7-2.29L11.09,5.65ZM7.24,5.84a.57.57,0,0,1-.71-.33.54.54,0,0,1,.36-.68.56.56,0,0,1,.71.33A.54.54,0,0,1,7.24,5.84Z"/><path class="cls-67" d="M8.41,3.71,5,4.83,4.05,7.94l2.87,8.29,7-2.29L11.09,5.65ZM7.24,5.84a.57.57,0,0,1-.71-.33.54.54,0,0,1,.36-.68.56.56,0,0,1,.71.33A.54.54,0,0,1,7.24,5.84Z"/><path class="cls-68" d="M8.41,3.71,5,4.83,4.05,7.94l2.87,8.29,7-2.29L11.09,5.65ZM7.24,5.84a.57.57,0,0,1-.71-.33.54.54,0,0,1,.36-.68.56.56,0,0,1,.71.33A.54.54,0,0,1,7.24,5.84Z"/><path class="cls-35" d="M8.41,3.71,5,4.83,4.05,7.94l2.87,8.29,7-2.29L11.09,5.65ZM7.24,5.84a.57.57,0,0,1-.71-.33.54.54,0,0,1,.36-.68.56.56,0,0,1,.71.33A.54.54,0,0,1,7.24,5.84Z"/></g></g><rect class="cls-70" x="13.19" y="8.11" width="4.16" height="7.53"/><path class="cls-35" d="M11,18h.24v1.78H11Z"/><path class="cls-35" d="M13.19,18v1.78H13l-1-1.33v1.33h-.24V18h.2l1,1.33V18Z"/><path class="cls-35" d="M15.09,18.62c0,.38-.27.62-.72.62H14v.54h-.24V18h.66C14.82,18,15.09,18.23,15.09,18.62Zm-.24,0c0-.26-.17-.4-.48-.4H14V19h.42C14.68,19,14.85,18.87,14.85,18.62Z"/><path class="cls-35" d="M15.33,18.89a.92.92,0,1,1,.92.91A.89.89,0,0,1,15.33,18.89Zm1.58,0a.67.67,0,1,0-.66.68A.65.65,0,0,0,16.91,18.89Z"/><path class="cls-35" d="M17.37,19.57l.1-.19a.83.83,0,0,0,.56.2c.3,0,.42-.12.42-.27,0-.44-1-.16-1-.83,0-.27.2-.5.65-.5a1,1,0,0,1,.55.15l-.08.21a.87.87,0,0,0-.47-.15c-.29,0-.41.13-.41.28,0,.44,1,.17,1,.82,0,.27-.21.51-.66.51A1,1,0,0,1,17.37,19.57Z"/><path class="cls-35" d="M19.05,18h.72a.89.89,0,1,1,0,1.78h-.72Zm.71,1.56a.67.67,0,1,0,0-1.34H19.3v1.34Z"/><path class="cls-35" d="M20.93,18.89a.92.92,0,1,1,.92.91A.89.89,0,0,1,20.93,18.89Zm1.58,0a.67.67,0,1,0-.66.68A.65.65,0,0,0,22.51,18.89Z"/><path class="cls-35" d="M24.72,19.78v-1.3l-.62,1.08H24l-.62-1.07v1.29h-.24V18h.2l.72,1.25.7-1.25H25v1.78Z"/><path class="cls-35" d="M27.6,19.3c0,.3-.22.48-.65.48h-.82V18h.77c.39,0,.61.17.61.46a.4.4,0,0,1-.23.39A.44.44,0,0,1,27.6,19.3Zm-1.23-1.1v.57h.51c.24,0,.39-.09.39-.28s-.15-.29-.39-.29Zm1,1.08c0-.21-.15-.3-.42-.3h-.57v.59h.57C27.21,19.57,27.36,19.48,27.36,19.28Z"/><path class="cls-35" d="M28.6,19.16v.62h-.24v-.62L27.68,18h.26l.55.94L29,18h.24Z"/><path class="cls-35" d="M31.78,19.78v-1.3l-.61,1.08H31l-.62-1.07v1.29h-.23V18h.2l.71,1.25L31.81,18H32v1.78Z"/><path class="cls-35" d="M32.53,18h.24v1.78h-.24Z"/><path class="cls-35" d="M34.38,19.33h-.91l-.19.45H33L33.8,18H34l.78,1.78h-.25Zm-.09-.2-.37-.87-.37.87Z"/><path class="cls-35" d="M34.91,18.89a.88.88,0,0,1,.91-.91.82.82,0,0,1,.65.27l-.16.16a.63.63,0,0,0-.48-.21.69.69,0,0,0,0,1.37.63.63,0,0,0,.48-.21l.16.16a.82.82,0,0,1-.65.28A.89.89,0,0,1,34.91,18.89Z"/><path class="cls-35" d="M37.87,19.33H37l-.19.45h-.25L37.3,18h.24l.78,1.78h-.26Zm-.08-.2-.37-.87-.37.87Z"/><path class="cls-35" d="M39.72,19.78l-.37-.55h-.53v.54h-.25V18h.67c.45,0,.72.23.72.62a.57.57,0,0,1-.38.56l.41.6Zm0-1.16c0-.26-.16-.4-.47-.4h-.42V19h.42C39.55,19,39.71,18.87,39.71,18.62Z"/><path class="cls-35" d="M41.54,18.88h.24v.69a1,1,0,0,1-.65.23.91.91,0,1,1,0-1.82.82.82,0,0,1,.66.27l-.15.16a.67.67,0,0,0-.5-.21.69.69,0,0,0,0,1.37.69.69,0,0,0,.4-.11Z"/><path class="cls-35" d="M42.11,18.89a.91.91,0,1,1,.91.91A.88.88,0,0,1,42.11,18.89Zm1.57,0a.67.67,0,1,0-.66.68A.65.65,0,0,0,43.68,18.89Z"/><path class="cls-35" d="M21,17.11a.92.92,0,0,1-.92-.91V13.12l-1.48-2.23a1,1,0,0,1-.15-.62A1.5,1.5,0,0,0,18.15,9a1.77,1.77,0,0,0-1.21-.57l-.63-1.78,3.2,0a.94.94,0,0,1,.74.4l1.57,2.34,1.59-2.37a.91.91,0,0,1,.76-.41h0c.47,0,1.25.37,1.29.83v.7c0,.57,0,1.65,0,1.78a.9.9,0,0,1-.15.52l-1.76,2.62V16.2a.91.91,0,0,1-.91.91Z"/><path class="cls-35" d="M11.83,17.15a.93.93,0,0,1-.93-.92V7.56a.93.93,0,0,1,.93-.92H15.9c3,0,4.07,1.64,4.07,3.18a3.15,3.15,0,0,1-.51,1.75,3.09,3.09,0,0,1,.93,2.29,2.93,2.93,0,0,1-1.23,2.49,5.08,5.08,0,0,1-3,.8ZM16,14.35c.39,0,.4-1.15,0-1.15H14.26v1.15Zm-.33-3.67h0a.58.58,0,1,0,0-1.14H14.26v1.14Z"/><path class="cls-35" d="M44,15.82,40.53,7.24a.9.9,0,0,0-.84-.56H38.11a.9.9,0,0,0-.84.56l-2.18,5.32v-5a.9.9,0,0,0-.91-.91H31a.9.9,0,0,0-.7.33L28.54,9.13,26.76,7a.93.93,0,0,0-.7-.32H24.51a.91.91,0,0,0-.92.91v8.57a.92.92,0,0,0,.92.92h1.63a.92.92,0,0,0,.91-.92V12.81l.82.93a.89.89,0,0,0,.68.31h0a.94.94,0,0,0,.69-.32l.76-.88v3.31a.92.92,0,0,0,.92.92h3.25a.78.78,0,0,0,.22,0,.71.71,0,0,0,.21,0H36.4a.92.92,0,0,0,.85-.58l.67-1.67h2l.67,1.67a.92.92,0,0,0,.85.58h1.79a.94.94,0,0,0,.76-.41A.92.92,0,0,0,44,15.82Z"/><path class="cls-70" d="M19.47,13.86c0,1.5-1.14,2.37-3.33,2.37H11.83V7.56H15.9c2.08,0,3.15.91,3.15,2.26a2.09,2.09,0,0,1-1.11,1.9A2.13,2.13,0,0,1,19.47,13.86ZM13.74,9.07v2h1.92c.94,0,1.45-.35,1.45-1s-.51-1-1.45-1Zm3.79,4.58c0-.73-.54-1.07-1.54-1.07H13.74v2.14H16C17,14.72,17.53,14.4,17.53,13.65Z"/><path class="cls-70" d="M24.51,7.59h1.55l2.48,3,2.45-3h1.56v8.57H30.93V10.39l-2.38,2.75-2.41-2.76v5.78H24.51Z"/><path class="cls-70" d="M32.85,9.55h1.64v6.61H32.85Z"/><path class="cls-70" d="M32.85,7.59h1.64V9H32.85Z"/><path class="cls-70" d="M38.11,7.59h1.58l3.5,8.57H41.4l-.91-2.24H37.31l-.91,2.24H34.61Zm1.72,4.7L38.89,10,38,12.29Z"/><path class="cls-70" d="M24.42,7.59h-.37l-2.37,3.47L19.36,7.61l-2.52-.05a2.41,2.41,0,0,1,2.38,2.8l1.64,2.46v3.35h1.63V12.82L24.4,10C24.4,9.75,24.42,7.6,24.42,7.59Z"/></svg>